# xmcd
#
# Track frame offsets:
#	150
#	10292
#	18093
#	28918
#	49833
#	59762
#	68000
#	75897
#	96742
#	104838
#	112124
#	127692
#	135459
#	148608
#	160032
#	168770
#	177406
#	189463
#	201461
#
# Disc length: 2826 seconds
#
# Revision: 2
# Processed by: cddbd v1.5.2PL0 Copyright (c) Steve Scherf et al.
# Submitted via: CDex 1.51
#
DISCID=0a0b0813
DTITLE=Sebõ Együttes - Sebõ - Nagy László
DYEAR=2004
DGENRE=Vers-zene
TTITLE0=Adjon Az Isten
TTITLE1=Az Én Szívem
TTITLE2=Aranypénztérdû-Szeretõ
TTITLE3=Himnusz Minden Idõben
TTITLE4=Az Ördög Hárfái
TTITLE5=Köd-Konda Támadt
TTITLE6=Ki Viszi Át A Szerelmet
TTITLE7=Ez Az Álom Nyughatatlan
TTITLE8=Volt Jegyeském
TTITLE9=Te is Drága, Én is Drága
TTITLE10=Táncbeli Tánc-Szók
TTITLE11=Sólyom Ének
TTITLE12=Csoda Halott
TTITLE13=Todóra
TTITLE14=Dona
TTITLE15=Három Tücsök Összejött
TTITLE16=Sztrumica
TTITLE17=Játék Karácsonykor
TTITLE18=Rege A Tûzrõl És A Jácintról (Részlet)
EXTD=YEAR: 2004
EXTT0=
EXTT1=
EXTT2=
EXTT3=
EXTT4=
EXTT5=
EXTT6=
EXTT7=
EXTT8=
EXTT9=
EXTT10=
EXTT11=
EXTT12=
EXTT13=
EXTT14=
EXTT15=
EXTT16=
EXTT17=
EXTT18=
PLAYORDER=
